<?xml version="1.0" encoding="UTF-8"?>
<svg id="Layer_1" data-name="Layer 1" xmlns="http://www.w3.org/2000/svg" xmlns:xlink="http://www.w3.org/1999/xlink" viewBox="0 0 512 512">
  <defs>
    <style>
      .cls-1 {
        fill: url(#linear-gradient);
      }

      .cls-1, .cls-2, .cls-3, .cls-4, .cls-5 {
        stroke-width: 0px;
      }

      .cls-2 {
        fill: url(#linear-gradient-2);
      }

      .cls-3 {
        fill: url(#linear-gradient-3);
      }

      .cls-4 {
        fill: #32ab52;
      }

      .cls-5 {
        fill: url(#linear-gradient-4);
      }
    </style>
    <linearGradient id="linear-gradient" x1="130.35" y1="181.33" x2="375.58" y2="181.33" gradientUnits="userSpaceOnUse">
      <stop offset="0" stop-color="#c8d485"/>
      <stop offset=".17" stop-color="#cecb77"/>
      <stop offset=".48" stop-color="#dfb653"/>
      <stop offset=".87" stop-color="#f89720"/>
    </linearGradient>
    <linearGradient id="linear-gradient-2" x1="153.36" y1="320.63" x2="352.19" y2="320.63" xlink:href="#linear-gradient"/>
    <linearGradient id="linear-gradient-3" x1="248.53" y1="528.53" x2="257.43" y2="217.17" gradientUnits="userSpaceOnUse">
      <stop offset=".11" stop-color="#4d82c3"/>
      <stop offset=".85" stop-color="#1abac9"/>
    </linearGradient>
    <linearGradient id="linear-gradient-4" x1="254.52" y1="301.1" x2="262.71" y2="14.33" xlink:href="#linear-gradient-3"/>
  </defs>
  <g>
    <path class="cls-1" d="m375.58,193.95h-.26c-1.45,34.29-18.19,55.72-45.13,55.72-37.84,0-69.86-62.15-138.28-62.15-23.56,0-44.49,6.43-61.58,19.14,15.72-54.12,65.65-93.68,124.83-93.68,54.43,0,101.05,33.47,120.41,80.97Z"/>
    <path class="cls-2" d="m352.19,329.51c-23.8,26.69-58.44,43.5-97.02,43.5-41.25,0-78.01-19.22-101.82-49.2,1.5-34.19,18.96-55.55,45.11-55.55,38.57,0,70.6,62.15,139.01,62.15,5.03,0,9.93-.3,14.71-.9Z"/>
  </g>
  <path class="cls-3" d="m456.96,252.42c-20.46,0-38.37,12.93-44.61,31.78-2.95,8.91-6.69,17.48-11.14,25.62-19.95,61.12-77.42,105.29-145.21,105.29s-125.29-44.19-145.23-105.33c-4.44-8.13-8.17-16.69-11.12-25.58-6.24-18.84-24.14-31.78-44.61-31.78h0c-13.74,0-25.89,5.67-34.36,14.53.56,30.13,6.77,59.4,18.48,87.08,11.86,28.04,28.82,53.2,50.41,74.79,21.59,21.59,46.76,38.55,74.79,50.41,10.49,4.44,21.2,8.08,32.1,10.93,19.32,5.06,39.25,7.6,59.54,7.6s40.21-2.55,59.53-7.6c.04,0,.08-.02.12-.02,10.87-2.84,21.54-6.48,31.99-10.9,28.04-11.86,53.2-28.82,74.79-50.41,21.59-21.59,38.55-46.75,50.41-74.79,11.71-27.68,17.92-56.95,18.48-87.09-8.46-8.86-20.61-14.52-34.36-14.52Z"/>
  <path class="cls-5" d="m491.37,249.61c0,1.52-.02,3.03-.05,4.55-8.46-8.86-20.61-14.52-34.36-14.52-20.46,0-38.37,12.93-44.61,31.78-2.95,8.91-6.69,17.48-11.14,25.62,4.87-14.93,7.5-30.87,7.5-47.43,0-84.35-68.37-152.72-152.71-152.72S103.28,165.27,103.28,249.61c0,16.54,2.63,32.47,7.49,47.38-4.44-8.13-8.17-16.69-11.12-25.58-6.24-18.84-24.14-31.78-44.61-31.78h0c-13.74,0-25.89,5.67-34.36,14.53-.03-1.52-.05-3.03-.05-4.55,0-31.74,6.23-62.58,18.53-91.64,11.86-28.04,28.82-53.2,50.41-74.79,21.59-21.59,46.76-38.55,74.79-50.41,29.07-12.3,59.91-18.53,91.64-18.53s62.57,6.23,91.64,18.53c28.04,11.86,53.2,28.82,74.79,50.41,21.59,21.59,38.55,46.76,50.41,74.79,12.3,29.07,18.53,59.91,18.53,91.64Z"/>
  <path class="cls-4" d="m503.73,297.33c0,3.33-.38,6.72-1.2,10.13-3.26,13.69-7.76,27.1-13.47,40.17-12.75,29.13-30.98,55.28-54.18,77.71-23.21,22.43-50.25,40.05-80.39,52.38-12.65,5.17-25.62,9.31-38.84,12.41-.03,0-.07.02-.12.02-19.37,4.53-39.29,6.81-59.54,6.81s-40.16-2.28-59.53-6.81c-13.26-3.1-26.27-7.25-38.96-12.44-30.13-12.32-57.17-29.94-80.38-52.38-23.2-22.43-41.43-48.58-54.17-77.71-5.72-13.07-10.22-26.48-13.48-40.17-3.63-15.23,1.23-30.09,11.21-40.52,8.46-8.86,20.61-14.53,34.36-14.53h0c20.46,0,38.37,12.93,44.61,31.78,2.94,8.89,6.68,17.45,11.12,25.58,27.51,50.36,82.23,84.68,145.23,84.68s117.7-34.31,145.21-84.64c4.45-8.14,8.19-16.71,11.14-25.62,6.24-18.84,24.14-31.78,44.61-31.78,13.74,0,25.89,5.66,34.36,14.52,7.74,8.09,12.41,18.85,12.41,30.39Z"/>
</svg>